<svg width="523" height="472" viewBox="0 0 523 472" fill="none" xmlns="http://www.w3.org/2000/svg">
<path d="M443.004 247.595C449.502 225.139 453.71 202.083 455.564 178.78C443.383 178.934 425.421 175.745 425.421 175.745C432.902 175.073 445.949 166.809 456.395 159.326C456.628 140.422 454.841 121.547 451.067 103.023C437.636 103.257 421.677 100.888 421.677 100.888C426.308 100.388 437.685 93.2828 447.16 86.8625C440.469 62.5465 430.486 39.2123 420.536 16.005L420.481 16.0731C404.144 35.9642 387.697 56.038 373.471 77.4388C380.906 85.9001 389.968 95.7743 394.643 99.2066C394.643 99.2066 377.834 97.8271 364.396 91.8304C359.59 99.8552 355.201 108.123 351.246 116.6C348.826 121.817 346.59 127.111 344.54 132.481C356.146 138.905 371.018 146.337 380.806 148.271C380.806 148.271 358.796 148.796 339.25 147.406C333.97 164.024 329.663 180.935 326.35 198.053C324.58 206.863 323 215.716 321.611 224.613C335.248 233.411 349.909 242.179 357.449 244.482C357.449 244.482 337.424 245.554 319.135 242.986C316.928 261.421 316.219 280.005 317.013 298.554C317.37 305.951 318.019 313.381 318.983 320.785C327.199 321.04 335.419 320.4 343.496 318.875C336.343 324.375 328.847 329.413 321.054 333.959C323.559 347.86 327.503 361.462 332.824 374.546C337.365 385.539 343.58 389.905 350.419 390.165C362.621 390.627 376.812 378.006 387.014 366.595C391.306 361.691 395.146 356.409 398.486 350.814C386.958 339.719 382.221 321.331 382.221 321.331L408.249 333.31C419.683 311.67 429.389 289.162 437.278 265.994C423.207 261.259 404.047 249.234 404.047 249.234C411.939 251.309 430.129 249.387 443.004 247.595Z" fill="#019961"/>
<path d="M214.407 320.287C209.164 314.628 204.663 307.714 204.275 300.009C203.887 292.304 208.851 283.966 216.47 282.766C221.328 281.999 226.111 284.108 230.922 285.131C235.733 286.154 241.705 285.579 244.156 281.316C246.928 276.494 243.344 270.464 239.218 266.734C222.101 251.262 193.342 248.859 183.03 228.22C181.078 224.311 180.011 219.615 181.716 215.593C184.374 209.332 192.259 207.418 199.052 207.058C205.846 206.698 213.398 206.807 218.424 202.22C224.137 197.005 223.884 187.413 219.666 180.928C215.448 174.443 208.274 170.52 201.101 167.628C193.928 164.736 186.373 162.561 179.865 158.379C176.005 155.898 172.471 152.579 170.897 148.273C169.323 143.967 170.157 138.567 173.752 135.722C178.856 131.684 188.607 132.602 189.818 126.206C190.711 121.476 185.544 118.153 181.545 115.476C173.084 109.821 166.659 100.267 167.07 90.0991C167.26 85.4078 168.855 80.8818 171.649 77.1081C174.442 73.3344 178.305 70.4871 182.736 68.9356C187.168 67.3841 191.963 67.1999 196.5 68.4069C201.037 69.614 205.107 72.1565 208.182 75.7048C214.854 83.4043 216.002 94.7566 222.694 102.44C226.973 102.721 229.003 97.4821 231.483 93.9859C237.615 85.342 251.822 86.1888 259.51 93.485C267.198 100.781 269.525 112.125 269.558 122.725C269.59 133.325 267.738 143.934 268.79 154.477C269.113 157.717 270.861 161.84 274.083 161.375C275.637 161.151 276.786 159.852 277.72 158.591C281.796 153.1 284.626 146.712 289.126 141.561C293.627 136.41 300.631 132.542 307.196 134.457C310.411 135.393 313.111 137.602 315.372 140.071C326.109 151.803 327.988 169.198 326.427 185.024C324.866 200.849 320.427 216.425 320.647 232.328C320.686 235.161 321.32 238.62 324.003 239.533C325.49 239.904 327.065 239.671 328.381 238.884C335.981 235.067 338.868 225.047 346.473 221.241C351.813 218.568 358.503 219.695 363.488 222.981C368.472 226.268 371.96 231.412 374.519 236.808C382.203 253.013 382.363 271.721 380.836 289.59C379.07 310.283 375.204 330.93 367.549 350.232C364.465 358.013 353.237 390.354 353.237 390.354C353.237 390.354 323.891 371.557 318.567 369.02C295.809 358.18 270.797 353.208 247.81 342.931C235.446 337.404 223.672 330.285 214.407 320.287Z" fill="url(#paint0_linear_14_175)"/>
<path d="M246.448 310.061C228.305 304.81 209.676 301.409 190.847 299.91C190.971 309.752 188.395 324.265 188.395 324.265C187.852 318.221 181.175 307.68 175.129 299.239C159.856 299.051 144.606 300.495 129.639 303.545C129.829 314.399 127.916 327.291 127.916 327.291C127.51 323.547 121.772 314.358 116.586 306.705C96.9388 312.11 78.0852 320.175 59.3352 328.216L59.39 328.261C75.4634 341.461 91.68 354.747 108.972 366.241C115.811 360.232 123.788 352.912 126.561 349.136C126.561 349.136 125.445 362.717 120.602 373.574C127.085 377.458 133.764 381.004 140.613 384.199C144.83 386.154 149.107 387.96 153.443 389.618C158.634 380.24 164.638 368.222 166.201 360.316C166.201 360.316 166.626 378.1 165.502 393.892C178.928 398.159 192.591 401.64 206.422 404.317C213.541 405.75 220.695 407.027 227.883 408.147C234.99 397.128 242.075 385.283 243.936 379.191C243.936 379.191 244.801 395.37 242.726 410.147C257.621 411.93 272.635 412.503 287.622 411.861C293.598 411.573 299.605 411.047 305.583 410.27C305.79 403.632 305.274 396.991 304.041 390.465C308.485 396.245 312.556 402.302 316.23 408.599C327.46 406.575 338.45 403.388 349.02 399.088C357.9 395.42 361.43 390.4 361.64 384.876C362.013 375.016 351.817 363.553 342.598 355.311C338.635 351.845 334.368 348.743 329.848 346.043C320.883 355.356 306.027 359.185 306.027 359.185L315.706 338.156C298.222 328.918 280.036 321.076 261.318 314.702C257.492 326.071 247.776 341.551 247.776 341.551C249.45 335.16 247.897 320.464 246.448 310.061Z" fill="#019961"/>
<defs>
<linearGradient id="paint0_linear_14_175" x1="240.613" y1="98.5931" x2="337.465" y2="436.356" gradientUnits="userSpaceOnUse">
<stop stop-color="#B5D653"/>
<stop offset="0.995" stop-color="#019961"/>
</linearGradient>
</defs>
</svg>
