<svg width="442" height="466" viewBox="0 0 442 466" fill="none" xmlns="http://www.w3.org/2000/svg">
<g clip-path="url(#clip0_14_181)">
<path d="M364.608 340.64C366.552 338.168 368.561 335.744 370.425 333.216C372.912 329.845 375.345 326.43 377.675 322.958C378.558 321.562 379.293 320.079 379.868 318.531C380.326 317.384 379.887 316.674 378.761 316.598C376.102 316.421 374.596 314.711 373.334 312.703C371.943 310.257 371.125 307.526 370.942 304.718C370.088 297.254 370.684 289.694 372.698 282.456C373.726 278.766 375.023 275.104 376.204 271.432C377.73 266.692 379.383 261.972 380.753 257.218C382.488 251.458 383.307 245.46 383.179 239.446C383.1 232.078 380.881 224.892 376.793 218.763C376.017 217.632 375.144 216.571 374.186 215.59C373.415 214.793 372.537 214.107 371.576 213.553C367.764 211.389 363.775 212.769 360.762 217.209C359.08 219.689 357.82 222.431 357.035 225.323C356.186 228.431 355.44 231.551 354.795 234.68C353.827 239.915 352.546 245.087 350.958 250.167C350.381 251.918 349.704 253.633 348.932 255.306C348.457 256.231 347.854 257.083 347.14 257.838C347.02 258.017 346.864 258.169 346.681 258.284C346.499 258.399 346.295 258.475 346.081 258.507C345.868 258.538 345.651 258.525 345.443 258.468C345.235 258.41 345.041 258.31 344.874 258.174C344.178 257.544 343.577 256.815 343.092 256.012C341.988 254.047 341.263 251.893 340.955 249.662C340.517 247.017 340.151 244.339 339.894 241.632C339.051 232.754 338.165 223.895 336.762 215.202C335.524 206.998 333.532 198.925 330.811 191.086C328.514 184.668 325.663 178.622 321.53 173.507C317.167 167.935 311.136 163.904 304.319 162.002C302.698 161.538 301.024 161.28 299.339 161.234C294.448 161.134 290.469 164.227 288.6 169.415C287.889 171.268 287.57 173.248 287.66 175.231C287.756 177.659 288.027 180.078 288.472 182.467C289.34 186.492 290.441 190.417 291.501 194.359C292.778 199.086 294.252 203.724 295.395 208.512C296.258 212.145 296.769 215.94 297.341 219.696C297.546 221.198 297.62 222.715 297.565 224.23C297.54 225.41 297.372 226.582 297.066 227.722C296.825 228.869 296.208 229.903 295.314 230.661C294.419 231.418 293.297 231.856 292.126 231.904C290.539 231.952 288.981 231.475 287.693 230.547C285.291 228.904 283.189 226.863 281.475 224.512C278.773 220.964 276.596 217.046 275.01 212.879C273.492 208.879 272.125 204.794 270.726 200.726C268.619 194.63 266.717 188.415 264.412 182.438C259.894 170.515 253.434 159.42 245.295 149.605C241.109 144.594 236.474 140.093 230.758 136.875C226.732 134.474 222.294 132.846 217.671 132.075C215.412 131.689 213.102 131.705 210.849 132.124C206.165 133.08 203.108 136.315 202.237 141.238C201.847 143.402 201.896 145.624 202.381 147.769C203.035 150.617 203.799 153.416 204.605 156.194C205.285 158.541 206.135 160.802 206.821 163.133C207.938 166.581 208.503 170.183 208.493 173.807C208.457 175.473 208.244 177.13 207.856 178.75C207.548 180.059 206.904 181.264 205.988 182.247C205.071 183.229 203.914 183.956 202.631 184.354C201.209 184.851 199.703 185.058 198.2 184.964C195.313 184.805 192.505 183.96 190.01 182.499C186.663 180.603 183.692 178.111 181.242 175.145C177.005 170.097 172.934 164.9 168.778 159.769C164.236 154.103 159.328 148.739 154.087 143.712C151.061 140.838 148.027 137.968 144.84 135.292C133.822 126.033 121.595 118.697 107.188 114.922C102.802 113.721 98.2794 113.096 93.7326 113.06C91.1231 113.032 88.5188 113.302 85.9704 113.864C83.8609 114.33 81.827 115.09 79.9284 116.121C77.3307 117.492 75.1227 119.499 73.5106 121.955C71.8985 124.41 70.9348 127.234 70.7094 130.163C70.5228 132.868 70.8913 135.583 71.7924 138.141C73.1322 142.118 75.2909 145.771 78.1292 148.864C81.7139 152.78 85.8812 156.025 89.8595 159.478C92.1074 161.429 94.485 163.226 96.7461 165.165C100.024 167.939 102.83 171.226 105.055 174.898C105.84 176.169 106.498 177.514 107.02 178.913C107.516 180.288 107.844 181.718 107.996 183.172C108.462 187.711 106.568 191.655 102.899 195.01C100.819 196.951 98.337 198.411 95.6295 199.285C93.4461 199.999 91.2124 200.548 88.947 200.928C85.6039 201.449 82.272 201.731 78.9382 202.069C74.252 202.403 69.5995 203.107 65.0244 204.175C62.3994 204.894 59.8131 205.748 57.2756 206.733C55.476 207.443 53.8177 208.469 52.3791 209.762C51.3777 210.545 50.5995 211.577 50.1221 212.755C49.6448 213.933 49.4851 215.216 49.6591 216.475C49.9765 218.856 51.1348 221.045 52.925 222.647C55.528 224.99 58.4804 226.913 61.6757 228.347C70.5228 232.587 80.2862 234.416 90.5799 234.819C99.7746 235.143 108.981 234.753 118.115 233.653C123.025 233.074 127.927 232.646 132.813 232.297C136.425 232.022 140.056 232.195 143.625 232.812C145.257 233.106 146.86 233.539 148.417 234.108C149.742 234.536 150.843 235.473 151.478 236.713C151.955 237.672 151.742 238.528 150.717 239.271C149.904 239.873 149.029 240.387 148.109 240.807C146.021 241.723 143.92 242.613 141.803 243.363C138.117 244.673 134.415 245.878 130.718 247.12C125.525 248.783 120.506 250.944 115.73 253.574C111.324 255.862 107.42 259.007 104.246 262.824C103.089 264.163 102.216 265.723 101.68 267.409C101.145 269.095 100.958 270.873 101.131 272.634C101.351 274.968 102.135 277.214 103.414 279.178C106.139 283.499 110.341 286.683 115.238 288.137C118.618 289.209 122.127 289.82 125.67 289.955C131.872 290.186 138.08 289.73 144.181 288.595C148.277 287.88 152.374 287.03 156.469 286.263C163.358 284.976 170.245 283.641 177.129 282.452C182.322 281.512 187.602 281.144 192.875 281.355C194.497 281.435 196.105 281.589 197.69 281.806C198.641 281.957 199.577 282.194 200.486 282.514C201.641 282.898 203.011 283.273 202.855 284.883C202.698 286.455 201.236 287.226 200.024 287.917C198.637 288.714 197.198 289.416 195.717 290.02C192.881 291.167 190.029 292.218 187.179 293.272C182.394 295.036 177.589 296.699 172.827 298.55C168.265 300.376 163.872 302.6 159.701 305.197C157.027 306.766 154.589 308.706 152.459 310.959C151.191 312.345 150.047 313.84 149.042 315.427C147.337 318.043 146.632 321.186 147.057 324.279C147.299 326.774 148.149 329.172 149.532 331.263C150.915 333.354 152.789 335.075 154.99 336.275C158.543 338.206 162.495 339.286 166.535 339.431C173.955 339.838 181.395 339.213 188.642 337.574C198.88 335.328 209.122 333.103 219.362 331.012C223.826 330.101 228.294 329.458 232.744 328.86C236.008 328.396 239.319 328.357 242.593 328.744C243.904 328.816 245.176 329.217 246.291 329.912C246.52 330.041 246.717 330.221 246.866 330.438C247.015 330.655 247.112 330.903 247.15 331.163C247.188 331.424 247.166 331.69 247.085 331.94C247.004 332.191 246.867 332.419 246.684 332.608C245.85 333.928 244.843 335.129 243.691 336.182C241.645 337.926 239.449 339.454 237.291 341.022C233.303 343.916 229.253 346.713 225.307 349.679C222.135 352.064 219.324 354.895 216.961 358.084C215.722 359.751 214.753 361.602 214.091 363.571C212.984 366.454 213.029 369.653 214.217 372.505C215.515 375.543 217.899 377.989 220.903 379.363C224.695 381.132 228.709 382.374 232.837 383.055C236.666 383.64 240.571 383.486 244.342 382.601C249.773 381.451 255.066 379.726 260.131 377.453C265.478 375.05 270.837 372.661 276.114 370.002C285.799 365.122 295.644 361.006 305.559 357.192C315.365 353.248 325.969 351.692 336.495 352.653C341.212 353.128 345.975 353.434 350.722 353.821C350.812 353.83 350.902 353.842 350.988 353.852C351.966 353.985 352.963 353.836 353.859 353.421C354.756 353.006 355.515 352.343 356.046 351.51C358.845 347.846 361.737 344.254 364.59 340.628L364.608 340.64Z" fill="#B3D553"/>
</g>
<defs>
<clipPath id="clip0_14_181">
<rect width="376.757" height="406.305" fill="white" transform="translate(0 65.4233) rotate(-10)"/>
</clipPath>
</defs>
</svg>
