<svg width="476" height="460" viewBox="0 0 476 460" fill="none" xmlns="http://www.w3.org/2000/svg">
<path d="M218.416 145.368C222.323 143.164 227.503 144.988 230.505 148.32C233.506 151.652 234.847 156.12 236.104 160.428C238.58 168.929 240.632 185.09 241.373 191.397C242.116 188.207 242.898 185.025 243.77 181.86C245.981 173.893 248.73 166.085 251.997 158.49C253.727 154.738 255.372 150.95 257.367 147.327C258.179 145.691 259.058 144.088 259.963 142.501C254.42 137.302 251.164 130.1 248.507 122.952C246.402 117.292 244.58 110.945 246.827 105.335C247.662 103.253 249.174 101.291 251.311 100.617C254.682 99.5547 258.209 102.047 260.111 105.024C263.121 109.731 263.59 115.609 263.462 121.198C263.341 126.591 261.582 136.77 260.81 141.02C261.683 139.522 262.568 138.031 263.444 136.536C269.594 126.575 276.692 117.234 284.639 108.642C276.896 99.6557 277.527 84.5447 286.154 76.3439C286.815 75.6216 287.663 75.0969 288.604 74.8278C291.573 74.2126 293.422 77.9812 293.776 80.9944C294.633 88.2867 288.674 101.723 286.165 106.985C294.214 98.4871 303.075 90.7986 312.619 84.0291C315.291 80.4461 323.079 68.6672 325.853 65.7739C328.473 63.0371 331.632 60.6111 335.336 59.8295C339.041 59.0478 343.352 60.2736 345.344 63.4958C348.33 68.3218 344.935 74.7002 340.579 78.3372C334.953 83.0342 318.262 84.5901 313.228 84.9567C304.089 91.5464 295.594 98.99 287.86 107.187C290.826 105.862 301.947 100.911 307.031 99.1575C312.925 97.1264 320.247 96.6607 324.636 101.089C326.687 103.159 327.701 106.724 325.835 108.966C324.33 110.774 321.676 110.982 319.326 110.994C308.612 111.042 297.927 109.902 287.465 107.595C278.907 116.712 271.322 126.697 264.832 137.388C263.877 139.046 262.909 140.697 261.963 142.36C266.25 139.521 284.149 127.955 294.063 125.977C298.634 125.065 304.737 125.699 306.025 130.182C306.709 132.557 305.582 135.171 303.782 136.865C301.982 138.558 299.616 139.502 297.274 140.284C286.715 143.806 272.669 144.62 261.565 143.063C260.63 144.724 259.72 146.4 258.887 148.119C256.939 151.718 255.336 155.483 253.651 159.206C250.474 166.741 247.811 174.483 245.679 182.378C244.605 186.385 243.654 190.421 242.777 194.478C248.112 184.575 255.597 175.995 264.681 169.371C268.593 166.529 272.99 164.002 277.812 163.69C282.633 163.379 287.916 165.866 289.494 170.439C291.305 175.69 287.776 181.333 283.553 184.942C272.69 194.229 257.447 196.019 243.179 196.643L242.334 196.608C239.967 207.877 238.094 219.282 235.716 230.616C234.363 237.018 232.797 243.375 231.017 249.686C236.992 242.016 256.371 218.101 270.818 211.269C274.395 209.577 278.535 208.125 282.218 209.556C285.708 210.913 287.869 214.718 287.966 218.464C288.063 222.21 286.374 225.832 284.006 228.735C281.079 232.32 277.172 234.951 273.281 237.443C260.036 245.921 245.839 253.596 230.3 252.172C225.325 269.383 218.69 286.069 210.489 301.995C216.43 294.884 227.348 282.305 234.844 276.587C240.277 272.441 246.196 268.592 252.898 267.279C257.46 266.385 262.177 266.713 266.766 267.45C270.63 268.071 274.72 269.136 277.271 272.104C279.925 275.194 280.278 279.801 278.98 283.666C277.682 287.53 274.965 290.757 272 293.55C265.971 299.144 258.789 303.342 250.961 305.848C243.133 308.353 234.851 309.104 226.703 308.048C222.662 307.494 212.981 307.967 207.636 307.356C204.9 312.358 202 317.266 198.935 322.081C191.764 333.332 183.639 343.945 174.65 353.801C185.375 348.02 220.061 329.881 240.025 326.093C248.361 324.512 258.351 324.168 263.819 330.659C268.989 336.797 267.254 346.693 261.849 352.63C256.444 358.567 248.39 361.304 240.537 362.925C217.847 367.608 193.489 365.951 172.536 356.106C171.046 357.69 169.532 359.253 167.995 360.794C156.282 372.566 143.137 382.817 128.87 391.305L126.971 388.05C140.905 379.893 153.769 370.027 165.266 358.683L164.898 358.597L147.722 335.207C144.713 331.11 141.691 326.989 139.368 322.466C136.869 317.649 135.271 312.415 134.652 307.022C133.642 297.81 136.819 287.055 145.319 283.385C147.151 282.514 149.214 282.252 151.204 282.638C154.359 283.385 156.556 286.196 158.22 288.978C166.638 303.054 167.772 320.175 168.627 336.565C169 343.75 169.269 351.338 166.177 357.776C177.54 346.434 187.662 333.912 196.373 320.422C198.249 317.535 200.047 314.6 201.8 311.638C197.484 308.357 181.352 295.97 174.869 289.158C167.357 281.259 162.231 270.902 161.489 260.016C161.225 256.157 161.585 252.03 163.851 248.895C166.737 244.902 172.295 243.431 177.091 244.526C181.887 245.621 185.955 248.896 189.009 252.758C193.744 258.75 196.334 266.117 198.82 273.344C202.595 284.323 206.316 296.228 204.247 307.402C214.233 289.642 222.187 270.813 227.961 251.271C221.403 247.412 214.842 243.468 209.176 238.389C203.252 233.073 198.311 226.36 196.412 218.625C195.51 214.956 195.337 210.975 196.796 207.49C198.254 204.005 201.6 201.155 205.373 201.081C208.979 201.012 212.166 203.338 214.845 205.76C220.061 210.475 228.96 233.576 229.68 245.26C231.058 240.245 232.308 235.2 233.428 230.124C236.053 218.051 238.101 205.804 240.832 193.677C226.613 188.221 215.712 173.861 213.872 158.723C213.272 153.767 214.066 147.82 218.416 145.368Z" fill="url(#paint0_linear_14_173)"/>
<defs>
<linearGradient id="paint0_linear_14_173" x1="420.107" y1="179.369" x2="144.607" y2="442.354" gradientUnits="userSpaceOnUse">
<stop stop-color="#B5D653"/>
<stop offset="0.995" stop-color="#019961"/>
</linearGradient>
</defs>
</svg>
