<svg width="1182" height="1009" viewBox="0 0 1182 1009" fill="none" xmlns="http://www.w3.org/2000/svg">
<g clip-path="url(#clip0_1_374)">
<path d="M270.977 535.517C280.789 535.503 290.445 537.97 299.048 542.687C307.637 529.692 320.016 519.653 334.504 513.932C348.993 508.211 364.891 507.086 380.041 510.707C383.272 485.453 396 462.378 415.637 446.172C435.274 429.967 460.345 421.848 485.753 423.467C511.162 425.085 535 436.32 552.422 454.886C569.843 473.452 579.54 497.956 579.541 523.416C579.541 523.516 579.534 523.616 579.533 523.716C581.526 523.516 583.546 523.416 585.591 523.416C601.816 523.416 617.376 529.861 628.849 541.334C640.322 552.807 646.767 568.367 646.767 584.592H213.254C215.49 570.894 222.523 558.438 233.098 549.448C243.672 540.458 257.098 535.52 270.977 535.517Z" fill="url(#paint0_linear_1_374)"/>
<path d="M2.326 104.339C0.0217276 99.181 -0.591079 93.4255 0.575391 87.8975C1.74186 82.3695 4.62777 77.3526 8.81978 73.565C13.0118 69.7774 18.2949 67.4133 23.9124 66.8116C29.53 66.2099 35.1939 67.4015 40.093 70.2154C40.917 64.9536 42.8525 59.9275 45.7705 55.472C48.6884 51.0165 52.5219 47.2339 57.0158 44.3755C61.5098 41.5172 66.561 39.649 71.8333 38.8951C77.1056 38.1412 82.4781 38.5188 87.593 40.0032C90.8984 29.8093 97.4437 20.9745 106.233 14.8431C115.022 8.71169 125.574 5.61953 136.282 6.03741C146.99 6.45529 157.269 10.3601 165.554 17.1578C173.838 23.9554 179.675 33.2738 182.176 43.6944C184.568 43.1207 187.067 43.1773 189.43 43.8585C191.794 44.5396 193.94 45.822 195.659 47.5806C197.379 49.3392 198.613 51.5139 199.24 53.8919C199.868 56.2699 199.868 58.7701 199.241 61.1483C204.374 61.7456 209.291 63.5584 213.584 66.4361C217.877 69.3138 221.421 73.1737 223.924 77.6954C224.765 77.6154 225.617 77.5704 226.479 77.5704C229.994 77.5704 233.475 78.2628 236.723 79.608C239.97 80.9532 242.921 82.9248 245.407 85.4105C247.892 87.8961 249.864 90.8469 251.209 94.0945C252.555 97.3422 253.247 100.823 253.247 104.338L2.326 104.339Z" fill="url(#paint1_linear_1_374)"/>
<path d="M1117.65 920.633C1117.65 920.633 467.56 694.091 376.299 916.021C325.569 1039.39 523.299 1244.61 746.399 1127.01C969.499 1009.41 1055.39 1084.93 1176.45 1171.4C1297.51 1257.87 1437.6 1135.08 1437.6 1024.4C1437.6 913.718 1321.72 898.728 1314.81 904.493" fill="#019961"/>
<path d="M1117.65 846.267C1117.65 846.267 467.56 619.725 376.299 841.655C325.569 965.021 523.299 1170.25 746.399 1052.65C969.499 935.045 1055.39 1010.56 1176.45 1097.03C1297.51 1183.51 1437.6 1060.72 1437.6 950.034C1437.6 839.352 1321.72 824.362 1314.81 830.127" fill="url(#paint2_linear_1_374)"/>
<path d="M1029.66 335.656C1007.19 288.881 959.386 263.635 915.038 241.567C913.366 240.678 911.507 240.2 909.614 240.171C907.721 240.142 905.848 240.563 904.15 241.4C825.261 210.125 724.15 178.856 653.229 244.27C623.769 271.443 605.573 316.448 608.517 356.57C609.955 376.163 617.564 393.87 632.935 406.47C647.774 418.63 667.142 424.309 681.246 437.313C697.253 452.071 702.698 474.727 710.546 494.233C718.026 512.823 727.946 529.956 741.604 544.725C767.872 573.125 806.03 589.502 844.714 582.073C882.58 574.801 909.135 547.763 917.982 510.867C920.333 501.058 921.882 490.134 928.097 481.888C934.358 473.588 944.275 470.763 954.012 468.613C972.822 464.457 991.695 462.68 1007.68 450.854C1043.85 424.082 1048.08 374.005 1029.66 335.656Z" fill="#019961"/>
<path d="M832.516 342.417C830.657 301.888 818.91 262.168 794.88 227.623C772.247 195.087 741.155 168.774 704.324 153.782C659.775 135.647 611.212 138.761 565.541 151.026C483.967 172.932 373.316 217.466 362.978 314.569C358.367 357.883 378.869 393.399 414.208 416.893C431.841 428.616 452.046 438.268 464.308 456.246C476.879 474.68 482.242 496.889 496.656 514.271C529.179 553.492 584.538 558.596 631.156 547.771C683.731 535.559 734.225 509.187 778.051 477.911C823.088 432.707 831.106 363.286 832.516 342.417Z" fill="url(#paint3_linear_1_374)"/>
<path d="M802.242 382.613C786.711 418.27 757.93 449.499 719.147 459.227C687.212 467.238 642.078 457.069 633.682 420.127C629.637 402.327 638.112 386.004 649.207 372.727C655.179 365.583 662.019 359.24 668.423 352.496C674.448 346.151 683.423 336.167 670.931 332.189C653.655 326.689 635.807 349.441 622.118 356.942C606.904 365.17 589.777 369.207 572.49 368.642C537.083 367.534 503.439 348.224 487.99 315.781C473.254 284.834 474.939 247.439 493.437 218.508C492.009 216.287 491.397 213.638 491.707 211.015C492.017 208.392 493.23 205.959 495.137 204.132C528.637 169.702 565.799 133.391 615.594 126.519C663.372 119.926 710.909 146.491 750.829 169.79C784.908 189.679 814.904 217.264 821.356 258C827.75 298.355 818.439 345.43 802.242 382.613Z" fill="url(#paint4_linear_1_374)"/>
<path d="M691.871 512.051C687.255 529.515 682.701 546.937 678.414 564.344C663.679 624.094 651.85 684.077 650.507 743.744C650.23 758.644 650.489 773.492 651.418 788.23C652.495 802.948 654.188 817.545 656.64 831.936C656.953 833.654 657.276 835.369 657.611 837.08H606.911C605.018 821.497 603.919 805.907 603.465 790.363C603.138 774.036 603.565 757.781 604.565 741.619C605.712 725.473 607.465 709.438 609.717 693.519C612.1 677.609 614.962 661.892 618.2 646.291C620.957 633.391 624 620.604 627.191 607.884C603.976 554.277 586.641 498.312 575.491 440.968C555.151 424.345 534.637 406.868 518.396 384.968C497.705 357.068 488.046 326.068 491.196 297.69L512.908 300.101C510.366 322.985 518.544 348.501 535.938 371.954C545.602 384.98 557.31 396.57 569.672 407.477C557.048 324.959 557.309 240.982 570.448 158.544L592.087 161.544C577.21 291.685 595.285 423.479 644.652 544.809C661.586 487.958 680.417 432.424 695.023 376.142C710.452 316.786 721.335 256.21 719.981 195.373L741.806 194.408C742.757 210.287 743.039 226.178 742.653 242.081C742.153 257.956 741.053 273.79 739.462 289.56C737.762 305.31 735.577 320.984 733.021 336.575C730.38 352.144 727.379 367.624 724.114 383.025C718.726 408.178 712.559 433.045 706.159 457.75C767.605 401.872 814.575 331.919 843.038 253.895L863.709 260.962C832.293 358.408 772.055 446.706 691.871 512.051Z" fill="url(#paint5_linear_1_374)"/>
<path d="M537.189 443.584C537.189 445.96 533.089 447.884 528.02 447.884C522.951 447.884 518.851 445.957 518.851 443.584C518.851 441.211 522.951 439.284 528.02 439.284C533.089 439.284 537.189 441.208 537.189 443.584Z" fill="#FFF0B3"/>
<path d="M900.684 411.157C900.684 413.533 896.579 415.457 891.515 415.457C886.451 415.457 882.346 413.53 882.346 411.157C882.346 408.784 886.446 406.857 891.515 406.857C896.584 406.857 900.684 408.781 900.684 411.157Z" fill="#FFF0B3"/>
<path d="M860.257 429.457C860.257 432.376 855.213 434.744 848.992 434.744C842.771 434.744 837.726 432.377 837.726 429.457C837.726 426.537 842.77 424.169 848.992 424.169C855.214 424.169 860.257 426.536 860.257 429.457Z" fill="#FFF0B3"/>
<path d="M888.447 452.424C898.85 452.424 907.284 448.466 907.284 443.584C907.284 438.702 898.85 434.744 888.447 434.744C878.044 434.744 869.61 438.702 869.61 443.584C869.61 448.466 878.044 452.424 888.447 452.424Z" fill="#FFF0B3"/>
<path d="M546.854 479.469C557.257 479.469 565.691 475.511 565.691 470.629C565.691 465.747 557.257 461.789 546.854 461.789C536.451 461.789 528.017 465.747 528.017 470.629C528.017 475.511 536.451 479.469 546.854 479.469Z" fill="#FFF0B3"/>
<path d="M988.903 238.944C983.15 180.278 943.429 125.269 880.058 125.503C845.514 125.631 812.314 138.435 778.819 124.011C748.297 110.867 725.512 85.4239 701.658 63.2389C655.513 20.3219 597.526 -5.41801 533.503 0.965985C469.859 7.31199 410.987 44.75 378.593 100.049C361.826 128.674 351.419 166.902 370.593 197.032C379.566 211.132 393.193 220.642 405.744 231.243C413.703 237.968 424.726 248.507 427.804 259.973C416.295 281.321 418.62 308.302 433.518 327.697C451.362 350.927 482.105 359.637 510.175 353.743C538.433 347.809 560.36 327.985 576.058 304.658C590.658 282.958 600.313 257.35 618.177 237.952C636.949 217.567 664.755 210.867 690.069 223.571C716.125 236.647 718.669 267.244 739.553 285.162C764.18 306.294 797.653 292.071 824.713 305.846C852.413 319.946 870.407 347.478 900.885 357.327C928.872 366.371 956.691 354.544 972.494 330.332C989.238 304.682 991.816 268.647 988.903 238.944Z" fill="url(#paint6_linear_1_374)"/>
<path d="M528.297 178.328C528.297 183.21 519.864 187.168 509.461 187.168C499.058 187.168 490.624 183.21 490.624 178.328C490.624 173.446 499.057 169.487 509.461 169.487C519.865 169.487 528.297 173.445 528.297 178.328Z" fill="#FFF0B3"/>
<path d="M546.854 146.291C546.854 149.211 541.811 151.578 535.589 151.578C529.367 151.578 524.324 149.211 524.324 146.291C524.324 143.371 529.367 141.004 535.589 141.004C541.811 141.004 546.854 143.371 546.854 146.291Z" fill="#FFF0B3"/>
<path d="M481.454 156.864C486.518 156.864 490.623 154.937 490.623 152.561C490.623 150.185 486.518 148.258 481.454 148.258C476.39 148.258 472.285 150.185 472.285 152.561C472.285 154.937 476.39 156.864 481.454 156.864Z" fill="#FFF0B3"/>
<path d="M817.388 205.83C817.388 208.205 813.282 210.13 808.218 210.13C803.154 210.13 799.049 208.202 799.049 205.83C799.049 203.458 803.155 201.53 808.218 201.53C813.281 201.53 817.388 203.452 817.388 205.83Z" fill="#FFF0B3"/>
<path d="M843.783 180.179C843.783 183.099 838.739 185.465 832.517 185.465C826.295 185.465 821.251 183.098 821.251 180.179C821.251 177.26 826.295 174.891 832.517 174.891C838.739 174.891 843.783 177.259 843.783 180.179Z" fill="#FFF0B3"/>
<path d="M843.109 237.263C843.109 242.146 834.675 246.104 824.272 246.104C813.869 246.104 805.436 242.146 805.436 237.263C805.436 232.38 813.869 228.423 824.272 228.423C834.675 228.423 843.109 232.383 843.109 237.263Z" fill="#FFF0B3"/>
<path d="M765.286 538.429C765.286 538.429 625.171 785.329 569.886 814.871L641.837 818.657L783.845 695.963L765.286 538.429Z" fill="#893136"/>
<path d="M912.424 811.682V908.782H1104.59C1104.59 908.782 1128.07 831.531 1134.88 825.471L912.424 811.682Z" fill="url(#paint7_linear_1_374)"/>
<path d="M765.285 538.429C765.285 538.429 689.548 735.347 606.236 805.029V908.789H912.427L961.448 759.589L765.285 538.429Z" fill="url(#paint8_linear_1_374)"/>
<path d="M765.284 538.429L1018.25 603.564C1018.25 603.564 1137.91 820.173 1204.56 847.438H957.662C957.662 847.438 803.153 753.523 765.284 538.429Z" fill="#C0755E"/>
<path d="M765.283 538.429L711.51 856.359L709.057 908.786H805.183L796.768 825.63L781.789 678.544L765.283 538.429Z" fill="#511F24"/>
<path d="M765.284 538.429C765.284 538.429 763.176 717.351 743.524 811.682C732.084 866.594 709.057 908.782 709.057 908.782C709.057 908.782 679.231 848.442 635.491 852.658C635.492 852.661 709.058 779.409 765.284 538.429Z" fill="url(#paint9_linear_1_374)"/>
<path d="M765.284 538.429C765.284 538.429 779.359 830.001 805.184 908.785C805.184 908.785 839.965 869.385 870.53 860.233C870.529 860.229 808.344 780.991 765.284 538.429Z" fill="url(#paint10_linear_1_374)"/>
<path d="M1011.31 870.985C1009.24 851.967 1008.5 832.253 1014.78 814.185C1021.06 796.117 1035.72 779.895 1054.57 776.653C1070.06 773.989 1086.3 780.153 1101.51 776.205C1124.32 770.277 1135.27 745.239 1146.05 724.278C1156.83 703.317 1177.09 681.085 1199.76 687.533C1220.53 693.442 1227.36 718.821 1231.61 739.998C1235.86 761.175 1245.53 786.477 1266.99 788.922C1280.38 790.447 1292.52 781.938 1304.59 775.922C1316.66 769.906 1333.18 766.987 1342.07 777.122C1348.1 783.995 1348.04 794.196 1351.75 802.555C1358.86 818.603 1378.31 825.061 1395.83 826.255C1413.34 827.449 1431.55 825.269 1447.96 831.517C1476.89 842.538 1490.65 881.881 1474.89 908.532H1009.83L1011.31 870.985Z" fill="url(#paint11_linear_1_374)"/>
<path d="M1229.85 905.143C1231.46 890.286 1232.04 874.887 1227.13 860.771C1222.23 846.655 1210.78 833.986 1196.05 831.453C1183.95 829.371 1171.27 834.191 1159.38 831.103C1141.56 826.472 1133.01 806.913 1124.59 790.54C1116.17 774.167 1100.34 756.799 1082.63 761.84C1066.41 766.456 1061.08 786.282 1057.75 802.823C1054.43 819.364 1046.88 839.132 1030.12 841.041C1019.66 842.232 1010.17 835.586 1000.75 830.888C991.326 826.19 978.411 823.909 971.467 831.823C966.757 837.192 966.803 845.161 963.91 851.69C958.355 864.226 943.157 869.272 929.478 870.202C915.799 871.132 901.568 869.432 888.755 874.312C866.155 882.922 855.405 913.655 867.714 934.474H1231L1229.85 905.143Z" fill="url(#paint12_linear_1_374)"/>
<path d="M754.923 1059.91C746.523 1051.05 730.903 1048.29 722.183 1056.84C724.697 1038.17 724.605 1015.68 709.235 1004.79C699.65 997.997 686.063 998.203 675.867 1004.04C665.671 1009.88 658.829 1020.65 656.286 1032.12C656.582 1027.41 655.503 1022.71 653.181 1018.6C650.858 1014.49 647.392 1011.15 643.204 1008.97C639.015 1006.79 634.284 1005.88 629.586 1006.34C624.888 1006.8 620.424 1008.61 616.737 1011.56C618.546 1000.97 618.444 989.695 613.937 979.943C609.43 970.191 599.837 962.325 589.093 962.143C577.793 961.951 567.703 970.13 562.293 980.049C556.883 989.968 555.263 1001.44 553.73 1012.63C545.556 996.621 520.762 994.98 507.359 1006.96C493.956 1018.95 491.185 1039.56 496.059 1056.86C492.941 1046.76 477.059 1046.76 470.103 1054.72C463.147 1062.68 462.727 1074.25 462.774 1084.82C462.787 1087.85 462.861 1091.07 464.491 1093.63C467.434 1098.25 473.884 1098.71 479.363 1098.67L652.923 1097.44C681.84 1097.23 710.786 1097.39 739.697 1096.82C764.323 1096.33 775.357 1081.46 754.923 1059.91Z" fill="#019961"/>
<path d="M533.29 810.454C533.29 810.454 549.29 800.223 557.939 791.239C572.698 805.54 586.305 820.985 598.633 837.428L580.197 852.893C580.197 852.893 595.857 855.893 608.417 851.12C611.467 855.664 614.099 860.475 616.282 865.493C621.287 877.332 625.782 892.634 621.048 901.734C618.397 906.834 612.854 909.984 602.878 909.487C591.036 908.831 579.293 906.946 567.841 903.861C567.186 896.313 566.05 888.814 564.441 881.411C562.701 888.092 560.237 894.564 557.095 900.711C551.132 898.785 545.256 896.611 539.514 894.231C525.146 888.178 511.291 880.972 498.086 872.683C503.832 863.595 508.811 854.045 512.973 844.131C508.519 849.031 496.602 857.015 485.029 864.212C478.771 859.965 472.616 855.589 466.563 851.084C454.755 842.426 443.462 833.087 432.74 823.116C440.81 808.773 448.306 791.877 448.306 791.877C443.328 798.613 432.349 807.238 423.306 813.744C419.965 810.262 416.748 806.666 413.654 802.956C408.637 796.913 403.936 790.615 399.569 784.087C408.942 776.036 416.02 763.769 416.02 763.769C411.738 766.087 400.991 769.423 391.897 772.033C380.753 753.553 371.414 733.866 362.173 714.326L362.141 714.259C383.332 715.03 404.63 715.823 425.491 719.467C426.966 728.967 428.274 740.152 426.991 743.846C431.541 736.955 435.606 729.755 439.157 722.3C454.58 726.078 469.554 731.493 483.826 738.454C485.76 749.068 487.352 761.939 485.18 767.854C485.18 767.854 494.046 755.364 498.3 746.054C515.328 755.823 531.322 767.291 546.038 780.283C542.777 790.705 537.709 805.204 533.29 810.454Z" fill="#019961"/>
<path d="M634.644 827.654C634.644 827.654 646.086 833.278 654.251 835.113C651.18 848.561 647.052 861.745 641.905 874.543L626.613 869.343C626.613 869.343 630.342 879.375 637.452 884.922C635.906 888.254 634.062 891.439 631.941 894.438C626.888 901.431 619.669 909.338 612.8 909.786C608.952 910.04 605.213 907.955 602.026 902.057C598.281 895.032 595.277 887.637 593.062 879.991C597.165 876.987 601.073 873.726 604.762 870.226C600.323 871.552 595.752 872.39 591.131 872.726C590.161 868.634 589.363 864.506 588.731 860.381C587.204 850.028 586.519 839.568 586.68 829.105C593.896 829.24 601.11 828.774 608.248 827.712C603.886 826.86 595.155 822.8 586.997 818.663C587.257 813.596 587.626 808.541 588.104 803.496C588.964 793.706 590.393 783.974 592.384 774.35C603.424 773.991 615.731 772.412 615.731 772.412C610.131 771.899 601.361 768.6 594.48 765.676C595.316 762.547 596.26 759.449 597.313 756.382C599.035 751.399 601.013 746.509 603.24 741.73C611.123 744.308 620.627 744.1 620.627 744.1C617.806 742.45 612.152 737.442 607.488 733.131C614.216 720.304 622.264 708.092 630.262 695.987L630.29 695.945C637.222 708.375 644.18 720.874 649.349 734.116C644.412 738.268 638.449 742.911 635.88 743.464C641.419 743.676 646.965 743.503 652.48 742.946C655.678 753.111 657.78 763.589 658.752 774.201C653.333 779.001 646.5 784.401 642.352 785.212C642.352 785.212 652.606 785.953 659.426 785.156C659.746 798.329 658.731 811.5 656.396 824.468C649.28 826.225 639.195 828.362 634.644 827.654Z" fill="#019961"/>
<path d="M396.042 443.309C396.042 443.309 444.466 456.568 452.537 498.074C460.608 539.58 426.019 548.804 396.042 522.286C366.065 495.768 349.924 431.209 396.042 443.309Z" fill="url(#paint13_linear_1_374)"/>
<path fill-rule="evenodd" clip-rule="evenodd" d="M408.975 841.073C436.287 861.792 480.516 842.917 505.015 821.709C509.348 818.064 512.367 813.099 513.608 807.575C519.182 781 477.193 774.451 475.966 750.635C475.428 740.213 483.281 731.569 489.071 722.884C502.286 703.052 506.028 677.977 503.23 654.308C500.432 630.639 491.565 608.108 481.23 586.625C472.786 569.053 457.697 549.19 438.666 553.417C426.437 556.128 418.59 568.292 415.036 580.306C410.145 596.816 410.848 614.556 414.136 631.466C415.588 638.952 417.536 646.729 415.521 654.09C410.363 672.926 383.937 677.184 374.35 694.204C364.591 711.526 376.237 732.621 387.011 749.331C396.23 763.631 401.891 772.5 395.848 784.718C394.202 787.931 391.926 790.779 389.156 793.094C383.344 798.098 372.463 813.38 408.975 841.073Z" fill="url(#paint14_linear_1_374)"/>
<path fill-rule="evenodd" clip-rule="evenodd" d="M444.872 602.288C444.913 608.201 450.872 932.151 450.872 932.151L427.394 934.209L444.872 602.288Z" fill="url(#paint15_linear_1_374)"/>
<path d="M958.534 533.817C958.534 533.696 958.525 533.578 958.525 533.457C958.523 527.615 960.173 521.892 963.285 516.948C966.396 512.003 970.842 508.039 976.109 505.513C981.376 502.986 987.25 502.001 993.054 502.669C998.857 503.338 1004.35 505.633 1008.91 509.291C1012.83 501.357 1019.11 494.833 1026.89 490.618C1034.67 486.402 1043.57 484.702 1052.35 485.751C1055.66 478.559 1061.67 472.962 1069.08 470.176C1076.49 467.39 1084.7 467.64 1091.92 470.873C1097.31 460.09 1106.42 451.623 1117.57 447.038C1128.72 442.454 1141.15 442.062 1152.57 445.934C1163.98 449.807 1173.61 457.682 1179.67 468.104C1185.73 478.526 1187.8 490.79 1185.52 502.626C1192.79 504.001 1199.34 507.87 1204.06 513.564C1208.78 519.258 1211.36 526.421 1211.37 533.816L958.534 533.817Z" fill="url(#paint16_linear_1_374)"/>
<path d="M1107.13 406.992C1127.34 406.992 1143.73 390.603 1143.73 370.386C1143.73 350.169 1127.34 333.78 1107.13 333.78C1086.91 333.78 1070.52 350.169 1070.52 370.386C1070.52 390.603 1086.91 406.992 1107.13 406.992Z" fill="#019961"/>
<path d="M1067.06 237.509C1076.93 237.509 1084.93 229.508 1084.93 219.638C1084.93 209.768 1076.93 201.767 1067.06 201.767C1057.19 201.767 1049.19 209.768 1049.19 219.638C1049.19 229.508 1057.19 237.509 1067.06 237.509Z" fill="#019961"/>
<path d="M798.711 102.037C817.336 102.037 832.435 86.9382 832.435 68.313C832.435 49.6877 817.336 34.589 798.711 34.589C780.086 34.589 764.987 49.6877 764.987 68.313C764.987 86.9382 780.086 102.037 798.711 102.037Z" fill="#019961"/>
<path d="M571.579 632.972C580.016 632.972 586.856 626.132 586.856 617.695C586.856 609.258 580.016 602.418 571.579 602.418C563.142 602.418 556.302 609.258 556.302 617.695C556.302 626.132 563.142 632.972 571.579 632.972Z" fill="#019961"/>
<path d="M888.065 84.742C896.184 84.742 902.765 78.1606 902.765 70.042C902.765 61.9234 896.184 55.342 888.065 55.342C879.946 55.342 873.365 61.9234 873.365 70.042C873.365 78.1606 879.946 84.742 888.065 84.742Z" fill="#019961"/>
<path d="M1216.17 1080.37C1224.67 1081.62 1233.61 1082.85 1242.77 1083.79C1243.2 1083.84 1243.63 1083.88 1244.06 1083.92C1251.58 1084.67 1259.23 1085.23 1266.88 1085.43C1267.35 1085.45 1267.81 1085.46 1268.28 1085.47C1278.65 1085.77 1289.02 1085.22 1299.3 1083.82C1299.74 1083.76 1300.17 1083.7 1300.6 1083.63C1309.3 1082.37 1317.83 1080.12 1326.03 1076.94C1345.61 1069.15 1362.34 1039.64 1334.56 1029.39C1327.29 1026.71 1316.89 1034.94 1311.1 1029.39C1304.73 1023.3 1312.91 1017.18 1314.87 1011.31C1319.86 996.332 1309.62 979.505 1294.28 976.362C1292.15 975.905 1289.96 975.683 1287.77 975.699C1269.44 975.986 1274.06 993.007 1262.69 999.893C1255.91 1003.99 1248.34 997.505 1241.68 996.208C1233.33 994.579 1222.85 997.19 1216.61 1003.11C1207.43 1011.82 1217.11 1022.07 1214.18 1031.93C1210 1046.03 1191.65 1037.85 1183.25 1045.9C1162.06 1066.2 1201.99 1078.29 1216.17 1080.37Z" fill="url(#paint17_linear_1_374)"/>
</g>
<defs>
<linearGradient id="paint0_linear_1_374" x1="646.767" y1="503.928" x2="213.254" y2="503.928" gradientUnits="userSpaceOnUse">
<stop stop-color="#D8EFD1"/>
<stop offset="0.483" stop-color="#E5F3DD"/>
<stop offset="1" stop-color="#EFF7E7"/>
</linearGradient>
<linearGradient id="paint1_linear_1_374" x1="253.247" y1="55.1697" x2="-0.00128174" y2="55.1697" gradientUnits="userSpaceOnUse">
<stop stop-color="#D8EFD1"/>
<stop offset="0.483" stop-color="#E5F3DD"/>
<stop offset="1" stop-color="#EFF7E7"/>
</linearGradient>
<linearGradient id="paint2_linear_1_374" x1="844.123" y1="1053.24" x2="859.322" y2="784.687" gradientUnits="userSpaceOnUse">
<stop stop-color="#B5D653"/>
<stop offset="0.995" stop-color="#019961"/>
</linearGradient>
<linearGradient id="paint3_linear_1_374" x1="1180.45" y1="589.781" x2="1140.09" y2="351.449" gradientUnits="userSpaceOnUse">
<stop stop-color="#B5D653"/>
<stop offset="0.995" stop-color="#019961"/>
</linearGradient>
<linearGradient id="paint4_linear_1_374" x1="1070.96" y1="589.244" x2="1070.96" y2="242.527" gradientUnits="userSpaceOnUse">
<stop stop-color="#B5D653"/>
<stop offset="0.995" stop-color="#019961"/>
</linearGradient>
<linearGradient id="paint5_linear_1_374" x1="1044.66" y1="790.261" x2="1044.66" y2="282.037" gradientUnits="userSpaceOnUse">
<stop/>
<stop offset="0.199" stop-color="#151515"/>
<stop offset="0.428" stop-color="#252525"/>
<stop offset="0.681" stop-color="#2F2F2F"/>
<stop offset="1" stop-color="#333333"/>
</linearGradient>
<linearGradient id="paint6_linear_1_374" x1="1037.79" y1="236.035" x2="1066.67" y2="-102.251" gradientUnits="userSpaceOnUse">
<stop stop-color="#B5D653"/>
<stop offset="0.995" stop-color="#019961"/>
</linearGradient>
<linearGradient id="paint7_linear_1_374" x1="697.973" y1="902.665" x2="698.015" y2="838.093" gradientUnits="userSpaceOnUse">
<stop stop-color="#B15945"/>
<stop offset="1" stop-color="#9C3E3F"/>
</linearGradient>
<linearGradient id="paint8_linear_1_374" x1="938.004" y1="886.197" x2="938.004" y2="677.314" gradientUnits="userSpaceOnUse">
<stop stop-color="#B15945"/>
<stop offset="1" stop-color="#9C3E3F"/>
</linearGradient>
<linearGradient id="paint9_linear_1_374" x1="1021.37" y1="819.157" x2="1021.37" y2="728.42" gradientUnits="userSpaceOnUse">
<stop stop-color="#C0755E"/>
<stop offset="1" stop-color="#B15945"/>
</linearGradient>
<linearGradient id="paint10_linear_1_374" x1="903.893" y1="768.79" x2="903.893" y2="663.239" gradientUnits="userSpaceOnUse">
<stop stop-color="#C0755E"/>
<stop offset="1" stop-color="#B15945"/>
</linearGradient>
<linearGradient id="paint11_linear_1_374" x1="476.363" y1="770.143" x2="476.363" y2="946.517" gradientUnits="userSpaceOnUse">
<stop stop-color="#B5D653"/>
<stop offset="0.995" stop-color="#019961"/>
</linearGradient>
<linearGradient id="paint12_linear_1_374" x1="822.756" y1="167.164" x2="685.748" y2="418.316" gradientUnits="userSpaceOnUse">
<stop stop-color="#B5D653"/>
<stop offset="0.995" stop-color="#019961"/>
</linearGradient>
<linearGradient id="paint13_linear_1_374" x1="382.855" y1="604.201" x2="442.324" y2="396.076" gradientUnits="userSpaceOnUse">
<stop stop-color="#B5D653"/>
<stop offset="0.995" stop-color="#019961"/>
</linearGradient>
<linearGradient id="paint14_linear_1_374" x1="442.402" y1="743.642" x2="442.402" y2="907.695" gradientUnits="userSpaceOnUse">
<stop stop-color="#B5D653"/>
<stop offset="0.995" stop-color="#019961"/>
</linearGradient>
<linearGradient id="paint15_linear_1_374" x1="450.872" y1="768.248" x2="427.394" y2="768.248" gradientUnits="userSpaceOnUse">
<stop/>
<stop offset="0.199" stop-color="#151515"/>
<stop offset="0.428" stop-color="#252525"/>
<stop offset="0.681" stop-color="#2F2F2F"/>
<stop offset="1" stop-color="#333333"/>
</linearGradient>
<linearGradient id="paint16_linear_1_374" x1="1211.37" y1="488.554" x2="958.525" y2="488.554" gradientUnits="userSpaceOnUse">
<stop stop-color="#D8EFD1"/>
<stop offset="0.483" stop-color="#E5F3DD"/>
<stop offset="1" stop-color="#EFF7E7"/>
</linearGradient>
<linearGradient id="paint17_linear_1_374" x1="1202.81" y1="1104.11" x2="1202.81" y2="903.637" gradientUnits="userSpaceOnUse">
<stop stop-color="#B5D653"/>
<stop offset="0.995" stop-color="#019961"/>
</linearGradient>
<clipPath id="clip0_1_374">
<rect width="1481.5" height="1214.15" fill="white"/>
</clipPath>
</defs>
</svg>
